<svg xmlns="http://www.w3.org/2000/svg" xmlns:xlink="http://www.w3.org/1999/xlink" version="1.1" width="256" height="256" viewBox="0 0 256 256" xml:space="preserve">

<defs>
</defs>
<g style="stroke: none; stroke-width: 0; stroke-dasharray: none; stroke-linecap: butt; stroke-linejoin: miter; stroke-miterlimit: 10; fill: none; fill-rule: nonzero; opacity: 1;" transform="translate(1.4065934065934016 1.4065934065934016) scale(2.81 2.81)" >
	<path d="M 77.439 90 H 12.561 c -1.933 0 -3.5 -1.567 -3.5 -3.5 v -83 c 0 -1.933 1.567 -3.5 3.5 -3.5 h 64.879 c 1.933 0 3.5 1.567 3.5 3.5 v 83 C 80.939 88.433 79.372 90 77.439 90 z M 16.061 83 h 57.879 V 7 H 16.061 V 83 z" style="stroke: none; stroke-width: 1; stroke-dasharray: none; stroke-linecap: butt; stroke-linejoin: miter; stroke-miterlimit: 10; fill: rgb(0,0,0); fill-rule: nonzero; opacity: 1;" transform=" matrix(1 0 0 1 0 0) " stroke-linecap="round" />
	<path d="M 31.149 40.687 c -1.021 0 -1.992 -0.445 -2.657 -1.222 l -6.683 -7.795 c -1.258 -1.468 -1.088 -3.678 0.379 -4.936 c 1.466 -1.258 3.676 -1.089 4.935 0.379 l 3.942 4.599 l 6.148 -7.629 c 1.213 -1.505 3.418 -1.741 4.921 -0.529 c 1.505 1.213 1.742 3.417 0.529 4.921 l -8.791 10.907 c -0.653 0.81 -1.632 1.287 -2.672 1.304 C 31.185 40.687 31.167 40.687 31.149 40.687 z" style="stroke: none; stroke-width: 1; stroke-dasharray: none; stroke-linecap: butt; stroke-linejoin: miter; stroke-miterlimit: 10; fill: rgb(0,0,0); fill-rule: nonzero; opacity: 1;" transform=" matrix(1 0 0 1 0 0) " stroke-linecap="round" />
	<path d="M 31.149 65.687 c -1.021 0 -1.992 -0.445 -2.657 -1.222 l -6.683 -7.795 c -1.258 -1.468 -1.088 -3.678 0.379 -4.936 c 1.466 -1.258 3.676 -1.09 4.935 0.379 l 3.942 4.599 l 6.148 -7.629 c 1.213 -1.506 3.418 -1.742 4.921 -0.529 c 1.505 1.214 1.742 3.417 0.529 4.922 l -8.791 10.907 c -0.653 0.81 -1.632 1.287 -2.672 1.304 C 31.185 65.687 31.167 65.687 31.149 65.687 z" style="stroke: none; stroke-width: 1; stroke-dasharray: none; stroke-linecap: butt; stroke-linejoin: miter; stroke-miterlimit: 10; fill: rgb(0,0,0); fill-rule: nonzero; opacity: 1;" transform=" matrix(1 0 0 1 0 0) " stroke-linecap="round" />
	<path d="M 64.927 35.232 H 51.75 c -1.933 0 -3.5 -1.567 -3.5 -3.5 s 1.567 -3.5 3.5 -3.5 h 13.177 c 1.933 0 3.5 1.567 3.5 3.5 S 66.859 35.232 64.927 35.232 z" style="stroke: none; stroke-width: 1; stroke-dasharray: none; stroke-linecap: butt; stroke-linejoin: miter; stroke-miterlimit: 10; fill: rgb(0,0,0); fill-rule: nonzero; opacity: 1;" transform=" matrix(1 0 0 1 0 0) " stroke-linecap="round" />
	<path d="M 64.927 60.232 H 51.75 c -1.933 0 -3.5 -1.567 -3.5 -3.5 s 1.567 -3.5 3.5 -3.5 h 13.177 c 1.933 0 3.5 1.567 3.5 3.5 S 66.859 60.232 64.927 60.232 z" style="stroke: none; stroke-width: 1; stroke-dasharray: none; stroke-linecap: butt; stroke-linejoin: miter; stroke-miterlimit: 10; fill: rgb(0,0,0); fill-rule: nonzero; opacity: 1;" transform=" matrix(1 0 0 1 0 0) " stroke-linecap="round" />
</g>
</svg>