<?xml version="1.0" encoding="iso-8859-1"?>
<!-- Generator: Adobe Illustrator 18.0.0, SVG Export Plug-In . SVG Version: 6.00 Build 0)  -->
<!DOCTYPE svg PUBLIC "-//W3C//DTD SVG 1.1//EN" "http://www.w3.org/Graphics/SVG/1.1/DTD/svg11.dtd">
<svg version="1.1" id="Capa_1" xmlns="http://www.w3.org/2000/svg" xmlns:xlink="http://www.w3.org/1999/xlink" x="0px" y="0px"
	 viewBox="0 0 492.98 492.98" style="enable-background:new 0 0 492.98 492.98;" xml:space="preserve">
<g>
	<path d="M227.193,167.404H70.18c-16.23,0-29.43,13.189-29.43,29.398v11.383H29.414C13.184,208.186,0,221.373,0,237.598v225.969
		c0,16.211,13.184,29.414,29.414,29.414h157.014c16.225,0,29.414-13.203,29.414-29.414V452.23h11.352
		c16.209,0,29.414-13.201,29.414-29.445V196.803C256.608,180.594,243.402,167.404,227.193,167.404z M186.428,208.186H63.039v-11.383
		c0-3.928,3.184-7.129,7.141-7.129h157.014c3.92,0,7.121,3.201,7.121,7.129v225.982c0,3.941-3.201,7.141-7.121,7.141h-11.352
		V237.598C215.842,221.373,202.652,208.186,186.428,208.186z M22.287,237.598c0-3.926,3.186-7.121,7.127-7.121h157.014
		c3.941,0,7.121,3.195,7.121,7.121v225.969c0,3.941-3.18,7.143-7.121,7.143H29.414c-3.941,0-7.127-3.201-7.127-7.143V237.598z"/>
	<path d="M66.623,293.863h63.152c6.139,0,11.141-5.016,11.141-11.139c0-6.164-5.002-11.164-11.141-11.164H66.623
		c-6.127,0-11.145,5-11.145,11.164C55.479,288.848,60.496,293.863,66.623,293.863z"/>
	<path d="M66.623,342.447h82.594c6.129,0,11.141-5.002,11.141-11.162c0-6.123-5.012-11.125-11.141-11.125H66.623
		c-6.127,0-11.145,5.002-11.145,11.125C55.479,337.445,60.496,342.447,66.623,342.447z"/>
	<path d="M66.623,390.992h82.594c6.129,0,11.141-4.984,11.141-11.123c0-6.16-5.012-11.164-11.141-11.164H66.623
		c-6.127,0-11.145,5.004-11.145,11.164C55.479,386.008,60.496,390.992,66.623,390.992z"/>
	<path d="M66.623,439.574h82.594c6.129,0,11.141-5.002,11.141-11.131c0-6.156-5.012-11.154-11.141-11.154H66.623
		c-6.127,0-11.145,4.998-11.145,11.154C55.479,434.572,60.496,439.574,66.623,439.574z"/>
	<path d="M482.045,0H303.383c-6.045,0-10.949,4.918-10.949,10.951v77.99h21.885V21.869h156.76v184.322h-29.973
		c-6.047,0-10.938,4.92-10.938,10.951v29.99h-115.85v-66.51h-21.885v77.445c0,6.016,4.904,10.934,10.949,10.934h137.723
		c2.891,0,5.66-1.125,7.734-3.199l40.924-40.908c2.09-2.076,3.217-4.822,3.217-7.752V10.951C492.98,4.918,488.076,0,482.045,0z"/>
	<path d="M332.488,177.377c0,4.002,2.385,7.559,6.084,9.066c1.188,0.482,2.459,0.74,3.746,0.74c2.654,0,5.131-0.998,6.961-2.861
		l42.598-42.598c1.848-1.854,2.879-4.328,2.879-6.93c0-2.574-1.061-5.148-2.893-6.98l-42.584-42.551
		c-2.732-2.752-7.074-3.639-10.723-2.156c-3.684,1.527-6.068,5.1-6.068,9.088v10.482h-66.99c-5.418,0-9.828,4.404-9.828,9.846
		v44.525c0,5.436,4.41,9.838,9.828,9.838h66.99V177.377z"/>
</g>
<g>
</g>
<g>
</g>
<g>
</g>
<g>
</g>
<g>
</g>
<g>
</g>
<g>
</g>
<g>
</g>
<g>
</g>
<g>
</g>
<g>
</g>
<g>
</g>
<g>
</g>
<g>
</g>
<g>
</g>
</svg>
